HIERARCHY
ROOT Hips
{
	OFFSET 0.000000 0.000000 0.000000
	CHANNELS 6 Xposition Yposition Zposition Zrotation Yrotation Xrotation 
	JOINT LHipJoint
	{
		OFFSET 0.000000 0.000000 0.000000
		CHANNELS 3 Zrotation Yrotation Xrotation
		JOINT LeftUpLeg
		{
			OFFSET 1.363060 -1.794630 0.839290
			CHANNELS 3 Zrotation Yrotation Xrotation
			JOINT LeftLeg
			{
				OFFSET 2.448110 -6.726130 0.000000
				CHANNELS 3 Zrotation Yrotation Xrotation
				JOINT LeftFoot
				{
					OFFSET 2.562200 -7.039590 0.000000
					CHANNELS 3 Zrotation Yrotation Xrotation
					JOINT LeftToeBase
					{
						OFFSET 0.157640 -0.433110 2.322550
						CHANNELS 3 Zrotation Yrotation Xrotation
						End Site
						{
							OFFSET 0.000000 0.000000 0.000000
						}
					}
				}
			}
		}
	}
	JOINT RHipJoint
	{
		OFFSET 0.000000 0.000000 0.000000
		CHANNELS 3 Zrotation Yrotation Xrotation
		JOINT RightUpLeg
		{
			OFFSET -1.305520 -1.794630 0.839290
			CHANNELS 3 Zrotation Yrotation Xrotation
			JOINT RightLeg
			{
				OFFSET -2.542530 -6.985550 0.000000
				CHANNELS 3 Zrotation Yrotation Xrotation
				JOINT RightFoot
				{
					OFFSET -2.568260 -7.056230 0.000000
					CHANNELS 3 Zrotation Yrotation Xrotation
					JOINT RightToeBase
					{
						OFFSET -0.164730 -0.452590 2.363150
						CHANNELS 3 Zrotation Yrotation Xrotation
						End Site
						{
							OFFSET 0.000000 0.000000 0.000000
						}
					}
				}
			}
		}
	}
	JOINT LowerBack
	{
		OFFSET 0.000000 0.000000 0.000000
		CHANNELS 3 Zrotation Yrotation Xrotation
		JOINT Spine
		{
			OFFSET 0.028270 2.035590 -0.193380
			CHANNELS 3 Zrotation Yrotation Xrotation
			JOINT Spine1
			{
				OFFSET 0.056720 2.048850 -0.042750
				CHANNELS 3 Zrotation Yrotation Xrotation
				JOINT Neck
				{
					OFFSET 0.000000 0.000000 0.000000
					CHANNELS 3 Zrotation Yrotation Xrotation
					JOINT Neck1
					{
						OFFSET -0.054170 1.746240 0.172020
						CHANNELS 3 Zrotation Yrotation Xrotation
						JOINT Head
						{
							OFFSET 0.104070 1.761360 -0.123970
							CHANNELS 3 Zrotation Yrotation Xrotation
							End Site
							{
								OFFSET 0.000000 0.000000 0.000000
							}
						}
					}
				}
				JOINT LeftShoulder
				{
					OFFSET 0.000000 0.000000 0.000000
					CHANNELS 3 Zrotation Yrotation Xrotation
					JOINT LeftArm
					{
						OFFSET 3.362410 1.200890 -0.311210
						CHANNELS 3 Zrotation Yrotation Xrotation
						JOINT LeftForeArm
						{
							OFFSET 4.983000 -0.000000 -0.000000
							CHANNELS 3 Zrotation Yrotation Xrotation
							JOINT LeftHand
							{
								OFFSET 3.483560 -0.000000 -0.000000
								CHANNELS 3 Zrotation Yrotation Xrotation
								JOINT LeftFingerBase
								{
									OFFSET 0.000000 0.000000 0.000000
									CHANNELS 3 Zrotation Yrotation Xrotation
									JOINT LeftHandIndex1
									{
										OFFSET 0.715260 -0.000000 -0.000000
										CHANNELS 3 Zrotation Yrotation Xrotation
										End Site
										{
											OFFSET 0.000000 0.000000 0.000000
										}
									}
								}
								JOINT LThumb
								{
									OFFSET 0.000000 0.000000 0.000000
									CHANNELS 3 Zrotation Yrotation Xrotation
									End Site
									{
										OFFSET 0.000000 0.000000 0.000000
									}
								}
							}
						}
					}
				}
				JOINT RightShoulder
				{
					OFFSET 0.000000 0.000000 0.000000
					CHANNELS 3 Zrotation Yrotation Xrotation
					JOINT RightArm
					{
						OFFSET -3.136600 1.374050 -0.404650
						CHANNELS 3 Zrotation Yrotation Xrotation
						JOINT RightForeArm
						{
							OFFSET -5.241900 -0.000000 -0.000000
							CHANNELS 3 Zrotation Yrotation Xrotation
							JOINT RightHand
							{
								OFFSET -3.444170 -0.000000 -0.000000
								CHANNELS 3 Zrotation Yrotation Xrotation
								JOINT RightFingerBase
								{
									OFFSET 0.000000 0.000000 0.000000
									CHANNELS 3 Zrotation Yrotation Xrotation
									JOINT RightHandIndex1
									{
										OFFSET -0.622530 -0.000000 -0.000000
										CHANNELS 3 Zrotation Yrotation Xrotation
										End Site
										{
											OFFSET 0.000000 0.000000 0.000000
										}
									}
								}
								JOINT RThumb
								{
									OFFSET 0.000000 0.000000 0.000000
									CHANNELS 3 Zrotation Yrotation Xrotation
									End Site
									{
										OFFSET 0.000000 0.000000 0.000000
									}
								}
							}
						}
					}
				}
			}
		}
	}
}
MOTION
Frames: 4
Frame Time: 0.008333
-6.152624 17.669001 37.939143 -139.089163 -81.047389 151.057383 0.235265 -2.556404 -1.882966 -12.133570 3.645019 -15.265974 -2.086981 6.068497 13.703864 1.876040 -2.819275 6.388110 0.814300 -5.758300 -16.084600 -2.794003 1.625624 -3.660350 2.171143 -0.838619 2.907449 1.142519 -0.113976 1.122014 0.002379 -5.703075 16.426096 0.000000 0.000000 0.000000 3.652376 3.326484 -9.888659 0.980343 3.477948 -3.482460 1.032795 1.680604 -4.841107 -23.690296 -8.720123 9.271436 15.042586 -25.543940 3.588149 24.272200 -13.194700 3.888300 -8.766757 -8.910379 2.067234 -79.171476 11.140981 36.230807 18.322727 -25.123003 -5.284548 1.350922 -0.763839 -50.296291 -13.242482 -7.285917 1.370900 -7.125000 0.000000 0.000000 -28.694100 23.835300 16.792700 5.155947 4.233709 0.594344 77.149362 -6.159917 46.589973 -13.851389 23.882363 -3.450793 -0.528019 0.647855 21.145428 -6.494580 6.426530 -0.606900 7.125000 0.000000 0.000000 15.408800 -23.940800 8.116000 
-6.153812 17.669973 37.939684 -139.186646 -81.062604 151.152992 0.230076 -2.554114 -1.879571 -12.146934 3.597503 -15.229345 -2.092094 6.057684 13.671204 1.870693 -2.798755 6.401627 0.799800 -5.707900 -15.939200 -2.794948 1.626125 -3.660367 2.170551 -0.838376 2.908019 1.142512 -0.113575 1.122174 0.002453 -5.702682 16.426245 0.000000 0.000000 0.000000 3.669032 3.316604 -9.889011 0.971270 3.467318 -3.488994 0.988162 1.668573 -4.858564 -23.705152 -8.688653 9.277330 15.034245 -25.491868 3.616293 24.293000 -13.182500 3.887900 -8.766737 -8.910274 2.065320 -79.166304 11.207992 36.392325 18.417969 -25.213226 -5.304900 1.330610 -0.768509 -50.288899 -12.696041 -7.196235 1.295200 -7.125000 0.000000 0.000000 -28.352400 23.932700 16.456700 5.149915 4.227639 0.589904 77.126219 -6.207231 46.803624 -13.895892 23.936515 -3.463291 -0.525083 0.649071 20.970341 -6.531283 6.313856 -0.599300 7.125000 0.000000 0.000000 15.392700 -24.054100 8.065000 
-6.154677 17.670082 37.937846 -139.137896 -81.045202 151.100645 0.232413 -2.553959 -1.879489 -12.128422 3.639257 -15.236994 -2.088633 6.059207 13.682235 1.880321 -2.835215 6.405301 0.790200 -5.674500 -15.843000 -2.796365 1.624512 -3.661285 2.171510 -0.838792 2.907092 1.142526 -0.114231 1.121910 0.002360 -5.703325 16.426003 0.000000 0.000000 0.000000 3.656309 3.303903 -9.900209 0.988250 3.444802 -3.484000 1.048788 1.666488 -4.837951 -23.752129 -8.680640 9.247234 15.016107 -25.461127 3.626390 24.286200 -13.163000 3.887400 -8.764212 -8.906511 2.060178 -79.218346 11.258689 36.673160 18.316050 -25.093120 -5.239509 1.323914 -0.693213 -50.123437 -12.253639 -8.518637 1.560800 -7.125000 0.000000 0.000000 -27.798700 22.708500 16.957700 5.157719 4.226788 0.591495 77.096897 -6.182247 46.738239 -13.865466 23.902152 -3.456262 -0.530038 0.649476 21.088059 -6.470942 6.475669 -0.608900 7.125000 0.000000 0.000000 15.422100 -23.894800 8.140600 
-6.155109 17.669757 37.938171 -139.000812 -81.044500 150.968427 0.236035 -2.551466 -1.877428 -12.116425 3.632902 -15.242560 -2.088956 6.056409 13.676920 1.880751 -2.835077 6.413781 0.793800 -5.687200 -15.879400 -2.791480 1.625501 -3.657967 2.170993 -0.838546 2.907606 1.142509 -0.113882 1.122054 0.002484 -5.702981 16.426140 0.000000 0.000000 0.000000 3.710467 3.339617 -9.865526 0.960595 3.495650 -3.496880 0.939488 1.674039 -4.894095 -23.669765 -8.703276 9.285222 15.022877 -25.479599 3.610816 24.270600 -13.172600 3.869200 -8.768671 -8.905536 2.067662 -79.118693 11.259269 36.531020 18.384458 -25.175386 -5.285659 1.331251 -0.736927 -50.478756 -12.621876 -7.725046 1.414300 -7.125000 0.000000 0.000000 -28.192600 23.441700 16.711600 5.146175 4.233150 0.588406 77.206265 -6.227388 46.651140 -13.870861 23.907871 -3.456153 -0.526895 0.647766 21.090471 -6.517094 6.387818 -0.605400 7.125000 0.000000 0.000000 15.395900 -23.979100 8.094500 
